<svg xmlns="http://www.w3.org/2000/svg" xmlns:xlink="http://www.w3.org/1999/xlink" width="3000" zoomAndPan="magnify" viewBox="0 0 2250 749.999995" height="1000" preserveAspectRatio="xMidYMid meet" version="1.0"><defs><g/><clipPath id="e1994f35f0"><path d="M 475 86.152344 L 1124 86.152344 L 1124 643.402344 L 475 643.402344 Z M 475 86.152344 " clip-rule="nonzero"/></clipPath><clipPath id="4cc2bea711"><path d="M 993.222656 86.589844 C 993.671875 86.507812 996.773438 86.152344 1000.230469 86.152344 C 1001 86.152344 1003.40625 86.183594 1005.839844 86.65625 C 1005.996094 86.6875 1008.554688 87.355469 1008.792969 87.410156 C 1012.242188 88.230469 1017.398438 90.628906 1020.109375 92.496094 C 1031.355469 100.246094 1030.570312 105.820312 1034.960938 109.71875 C 1037.863281 112.292969 1044.585938 109.953125 1050.339844 109.457031 C 1054.507812 109.097656 1054.625 108.59375 1056.660156 108.292969 C 1057.558594 108.160156 1057.628906 108.484375 1070.207031 105.121094 C 1075.105469 103.8125 1085.648438 98.46875 1085.632812 101.585938 C 1085.628906 102.738281 1085.238281 102.558594 1084.253906 103.152344 C 1073.539062 109.609375 1056.03125 117.53125 1052.515625 119.367188 C 1044.105469 123.761719 1035.742188 128.542969 1034.636719 129.375 C 1026.144531 135.746094 1024.878906 142.914062 1023.617188 148.367188 C 1022.558594 152.953125 1023.132812 153.011719 1022.609375 157.683594 C 1021.511719 167.460938 1022.757812 167.460938 1022.953125 177.394531 C 1023.050781 182.414062 1023.726562 182.339844 1023.980469 186.765625 C 1024.019531 187.453125 1024.050781 188.140625 1024.089844 188.828125 C 1024.375 193.601562 1024.867188 193.535156 1025.902344 204.332031 C 1026.15625 206.957031 1026.753906 209.78125 1026.851562 211.625 C 1026.933594 213.183594 1026.867188 213.167969 1026.9375 214.742188 C 1027.207031 220.507812 1027.992188 220.421875 1028.132812 226.195312 C 1028.257812 231.441406 1028.9375 231.367188 1029.1875 236.59375 C 1029.394531 240.863281 1029.589844 240.824219 1029.960938 244.828125 C 1031.660156 263.023438 1031.914062 262.988281 1032.019531 264.570312 C 1032.332031 269.257812 1032.207031 269.261719 1032.972656 273.898438 C 1033.578125 277.550781 1033.066406 279.730469 1033.6875 283.300781 C 1034.730469 289.304688 1034.148438 289.359375 1034.699219 293.679688 C 1035.964844 303.546875 1036.308594 311.039062 1036.660156 313.429688 C 1037.257812 317.527344 1037.203125 317.515625 1037.347656 321.675781 C 1037.441406 324.332031 1038.246094 326.691406 1038.355469 328.933594 C 1038.484375 331.578125 1038.445312 331.5625 1038.582031 334.191406 C 1038.671875 335.992188 1039.242188 337.941406 1039.410156 340.34375 C 1039.847656 346.585938 1039.945312 346.5625 1040.503906 352.808594 C 1040.609375 353.976562 1041.609375 365.144531 1041.949219 367.40625 C 1042.882812 373.582031 1042.125 373.664062 1043.25 379.820312 C 1044.144531 384.703125 1043.21875 384.785156 1044.324219 391.238281 C 1044.773438 393.871094 1044.769531 398.035156 1045.117188 400.621094 C 1046.027344 407.335938 1046.679688 417.59375 1047.089844 420.363281 C 1047.976562 426.355469 1047.171875 426.429688 1048.175781 431.785156 C 1048.746094 434.851562 1048.652344 434.84375 1048.796875 437.976562 C 1049.042969 443.390625 1049.707031 444.824219 1049.933594 448.402344 C 1050.191406 452.546875 1050.222656 452.527344 1050.664062 456.644531 C 1050.761719 457.558594 1051.449219 463.957031 1051.738281 468.074219 C 1052.179688 474.332031 1052.636719 474.273438 1052.867188 480.539062 C 1053.058594 485.78125 1053.847656 485.699219 1053.960938 490.929688 C 1054.097656 497.136719 1054.792969 497.0625 1055.125 502.394531 C 1055.195312 503.558594 1055.425781 507.308594 1056.410156 516.921875 C 1057.386719 526.492188 1057.28125 526.488281 1057.394531 527.316406 C 1057.960938 531.425781 1057.933594 531.410156 1058.09375 535.5625 C 1058.21875 538.746094 1059.03125 539.910156 1059.136719 543.878906 C 1059.316406 550.683594 1060.085938 550.601562 1060.398438 557.417969 C 1060.542969 560.519531 1060.902344 561 1061.152344 563.570312 C 1062.554688 577.996094 1063.035156 577.910156 1063.148438 579.164062 C 1063.46875 582.835938 1063.808594 582.773438 1064.3125 586.414062 C 1064.675781 589.03125 1064.910156 588.972656 1065.382812 591.574219 C 1067.078125 600.917969 1071.679688 613.390625 1080.320312 621.914062 C 1091.625 633.066406 1107.253906 635.4375 1112.621094 636.339844 C 1113.789062 636.539062 1121.882812 636.894531 1123.113281 638.261719 C 1123.367188 638.546875 1123.152344 639.089844 1123.410156 639.375 C 1123.285156 639.765625 1123.378906 640.207031 1123.253906 640.597656 C 1123.007812 641.378906 1122.601562 641.09375 1122.253906 641.820312 C 1122.074219 642.203125 1122.144531 642.671875 1121.964844 643.054688 L 1116.777344 643.054688 C 1116.078125 642.664062 1116.308594 642.394531 1115.613281 642.003906 C 1115.546875 641.964844 1115.515625 641.949219 1114.65625 641.871094 C 1105.410156 641.011719 1103.222656 640.929688 1102.222656 640.894531 C 1093.300781 640.566406 1092.171875 640.257812 1087.730469 640.164062 C 1084.433594 640.09375 983.675781 640.125 974.625 640.125 C 964.613281 640.128906 944.5 641.105469 941.414062 641.371094 C 931.953125 642.191406 931.867188 641.625 931.144531 642.015625 C 930.691406 642.257812 930.460938 642.8125 930.011719 643.054688 L 922.746094 643.054688 C 922.570312 642.644531 922.746094 642.132812 922.570312 641.722656 C 922.46875 641.484375 922.148438 641.421875 921.96875 641.238281 C 921.121094 640.359375 921.191406 639.515625 921.207031 639.355469 C 921.261719 638.699219 921.398438 637.027344 929 636.730469 C 946.191406 636.054688 961.65625 630.277344 970.378906 624.730469 C 971.167969 624.230469 976.664062 620.734375 979.320312 617.214844 C 989.699219 603.460938 989.199219 589.914062 988.515625 572.945312 C 988.457031 571.460938 987.332031 556.898438 987.25 556.335938 C 986.347656 550.136719 987.199219 550.046875 985.976562 543.910156 C 985.058594 539.308594 985.785156 537.707031 985.078125 533.503906 C 984.082031 527.59375 984.628906 527.550781 984.0625 523.121094 C 982.757812 512.957031 982.539062 505.882812 982.003906 502.351562 C 980.972656 495.550781 981.769531 495.179688 980.964844 490.925781 C 979.796875 484.734375 980.769531 484.640625 979.914062 479.507812 C 979.058594 474.359375 979.492188 474.324219 978.925781 469.125 C 976.851562 450.027344 977.144531 450 976.902344 448.347656 C 975.894531 441.488281 976.671875 441.417969 975.875 436.917969 C 975.152344 432.816406 975.160156 432.824219 975.054688 428.628906 C 974.953125 424.53125 974.195312 423.40625 974.023438 419.273438 C 973.777344 413.523438 972.613281 404.808594 972.300781 400.636719 C 971.792969 393.871094 971.46875 393.917969 971.097656 387.136719 C 970.78125 381.367188 970.039062 381.441406 969.90625 375.679688 C 969.816406 371.925781 969.757812 371.941406 969.199219 368.464844 C 968.726562 365.535156 968.816406 362.363281 968.570312 360.105469 C 966.503906 341.003906 966.75 340.980469 966.511719 339.328125 C 965.523438 332.53125 966.277344 332.460938 965.464844 327.902344 C 963.773438 318.453125 965.265625 316.722656 964.109375 315.585938 C 962.960938 314.457031 960.777344 317.023438 960.738281 317.054688 C 948.488281 326.523438 941.589844 329.734375 933.195312 333.296875 C 918.714844 339.441406 902.058594 343.890625 889.839844 352.25 C 882.121094 357.527344 877.515625 362.75 876.582031 363.804688 C 874.382812 366.296875 869.898438 370.835938 864.199219 380.628906 C 858 391.285156 858.175781 391.378906 853.695312 402.867188 C 825.066406 476.253906 809.957031 514.179688 806.878906 522.21875 C 804.867188 527.472656 777.351562 597.339844 771.960938 611.265625 C 766.726562 624.773438 759.136719 620.097656 756.808594 617.546875 C 756.363281 617.054688 755.441406 616.042969 753 610.171875 C 751.535156 606.644531 740 577.324219 739.480469 575.945312 C 736.769531 568.742188 723.597656 535.101562 722.207031 531.554688 C 702.0625 480.105469 702.316406 480.023438 682.171875 428.582031 C 666.519531 388.621094 666.566406 388.605469 665.171875 385.144531 C 656.628906 363.9375 657.058594 363.792969 648.640625 342.539062 C 644.339844 331.679688 631.144531 296.808594 606.609375 234.359375 C 605.015625 230.296875 588.535156 188.34375 586.730469 183.546875 C 583.117188 173.945312 580.101562 179.128906 579.804688 179.6875 C 579.417969 180.421875 577.855469 187.074219 577.71875 194.007812 C 577.597656 200.28125 576.804688 200.210938 576.609375 206.472656 C 576.414062 212.726562 575.953125 212.667969 575.621094 216.875 C 574.128906 235.949219 573.847656 235.917969 573.773438 237.582031 C 573.46875 244.535156 572.960938 244.472656 572.710938 247.953125 C 572.335938 253.15625 572.679688 253.175781 571.832031 258.332031 C 571.164062 262.382812 571.566406 264.78125 571.175781 267.730469 C 569.871094 277.664062 570.003906 280.75 569.207031 288.511719 C 568.03125 299.976562 568.246094 299.980469 568.089844 300.96875 C 567.453125 304.953125 567.492188 304.945312 567.304688 310.308594 C 567.164062 314.238281 566.410156 314.152344 566.242188 319.648438 C 566.078125 324.878906 565.726562 324.835938 565.257812 330.050781 C 563.429688 350.460938 561.597656 370.875 559.769531 391.285156 C 559.6875 392.199219 558.894531 401.027344 558.683594 402.707031 C 557.800781 409.679688 558.320312 410.109375 557.683594 414.136719 C 556.59375 421.011719 557.394531 421.082031 556.746094 425.578125 C 556.074219 430.238281 555.957031 430.210938 555.816406 434.894531 C 555.773438 436.308594 555.480469 436.28125 554.132812 452.503906 C 553.339844 462.078125 553.199219 462.0625 553.140625 462.894531 C 552.335938 474.382812 552 474.347656 551.953125 475.347656 C 551.722656 480.566406 551.886719 480.570312 551.054688 485.710938 C 550.390625 489.800781 550.859375 492.015625 550.402344 495.117188 C 549.488281 501.308594 549.847656 501.324219 549.164062 507.554688 C 548.476562 513.816406 547.445312 527.289062 547.28125 528.34375 C 546.113281 535.726562 547.125 535.832031 546.160156 540.792969 C 544.988281 546.816406 545.855469 546.898438 545.164062 551.179688 C 544.976562 552.332031 544.316406 556.40625 543.742188 565.683594 C 542.246094 589.992188 543.664062 609.042969 556.644531 620.535156 C 566.710938 629.445312 577.8125 631.835938 581.433594 633.023438 C 587.554688 635.023438 599.558594 636.59375 600.027344 636.625 C 600.773438 636.679688 606.871094 637.109375 609.316406 637.714844 C 609.578125 637.78125 612.746094 638.5625 610.8125 640.734375 C 609.8125 641.863281 609.660156 641.683594 609.601562 641.796875 C 609.410156 642.175781 609.585938 642.675781 609.394531 643.054688 L 601.09375 643.054688 C 600.613281 642.875 600.5 642.128906 600.019531 641.949219 C 599.089844 641.597656 599.039062 642.128906 587.613281 641.355469 C 562.894531 639.683594 512.929688 639.648438 489.042969 641.644531 C 488.1875 641.714844 485.011719 641.90625 484.957031 641.9375 C 484.5 642.199219 484.300781 642.792969 483.84375 643.054688 L 477.617188 643.054688 C 477.433594 642.683594 477.519531 642.214844 477.332031 641.84375 C 477.21875 641.613281 476.921875 641.53125 476.75 641.339844 C 476.144531 640.660156 474.394531 638.496094 477.691406 637.769531 C 477.929688 637.71875 477.949219 637.835938 480.710938 637.25 C 485.632812 636.203125 492.328125 636.546875 505.625 631.089844 C 515.808594 626.910156 521.839844 619.703125 522.945312 618.386719 C 528.28125 612.011719 534.128906 597.824219 535.125 588.585938 C 535.472656 585.371094 536.0625 585.488281 536.308594 582.28125 C 536.503906 579.695312 536.445312 579.703125 536.917969 577.152344 C 537.445312 574.332031 537.328125 571.871094 538.933594 559.480469 C 539.472656 555.3125 538.992188 555.28125 539.972656 549.105469 C 540.757812 544.171875 539.859375 544.082031 541.050781 537.691406 C 541.9375 532.902344 541.046875 532.480469 541.960938 526.246094 C 542.570312 522.066406 542.785156 511.515625 543.425781 502.394531 C 544.382812 488.785156 544.183594 485.335938 545.21875 475.386719 C 545.820312 469.597656 544.988281 468.636719 546.207031 460.847656 C 547.175781 454.644531 546.175781 454.5625 547.238281 447.351562 C 547.542969 445.296875 548.355469 433.398438 549.261719 425.539062 C 549.917969 419.835938 549.558594 419.808594 550.421875 414.132812 C 550.976562 410.488281 550.1875 409.9375 551.402344 403.75 C 552.128906 400.066406 551.726562 396.941406 552.148438 394.355469 C 553.308594 387.167969 552.867188 387.128906 553.738281 379.894531 C 554.484375 373.664062 554.675781 368.375 555.5 363.246094 C 556.195312 358.933594 555.425781 358.292969 556.542969 352.867188 C 557.367188 348.863281 556.867188 346.308594 557.351562 343.480469 C 558.054688 339.351562 557.964844 339.363281 558.257812 335.179688 C 558.320312 334.257812 559.554688 324.539062 560.1875 316.460938 C 560.378906 314.019531 560.867188 312.34375 560.96875 310.304688 C 561.195312 305.683594 561.132812 305.695312 561.839844 302.007812 C 562.75 297.273438 561.882812 297.179688 562.867188 291.621094 C 563.027344 290.71875 562.910156 290.714844 564.046875 280.210938 C 565.210938 269.453125 564.910156 269.4375 565.96875 262.542969 C 566.222656 260.871094 566.253906 256.257812 566.648438 254.175781 C 567.429688 250.058594 567.265625 250.058594 567.488281 245.878906 C 567.683594 242.214844 568.28125 242.289062 568.511719 237.574219 C 568.558594 236.574219 568.621094 235.285156 569.691406 225.113281 C 570.242188 219.910156 570.070312 219.90625 570.714844 214.71875 C 571.164062 211.113281 571.230469 211.144531 571.433594 207.515625 C 571.757812 201.734375 572.484375 201.820312 572.613281 196.054688 C 572.742188 190.289062 573.464844 190.367188 573.703125 184.625 C 573.984375 177.847656 574.257812 177.878906 574.851562 171.121094 C 575.488281 163.886719 576.554688 160.332031 574.355469 156.484375 C 572.554688 153.324219 565.335938 138.863281 553.671875 128.234375 C 553.296875 127.890625 548 122.507812 538.683594 118.597656 C 532.148438 115.851562 521.625 114.691406 521.226562 114.671875 C 519 114.558594 510.914062 114.378906 510.417969 112.085938 C 510.042969 110.367188 511.589844 108.347656 516 108.9375 C 522.730469 109.839844 522.773438 109.140625 529.484375 110.003906 C 533.707031 110.546875 561.722656 111.171875 589.679688 110.953125 C 604.273438 110.839844 626.253906 110.574219 630.03125 112.25 C 634.273438 114.132812 635.308594 119.492188 643.570312 140.027344 C 649.402344 154.519531 649.035156 154.648438 654.910156 169.128906 C 656.929688 174.101562 668.644531 204.332031 669.828125 207.394531 C 672.027344 213.058594 694.574219 271.246094 697.429688 278.164062 C 697.621094 278.632812 735.519531 375.824219 735.898438 376.765625 C 739.527344 385.871094 790.335938 516.59375 792.195312 519.917969 C 792.273438 520.058594 793.171875 522.390625 795.0625 521.929688 C 797.875 521.246094 806.121094 497.71875 822.875 456.566406 C 834.550781 427.882812 837.085938 420.222656 841.589844 410.925781 C 841.910156 410.261719 842.300781 409.621094 842.503906 408.914062 C 842.535156 408.800781 842.246094 408.796875 842.230469 408.675781 C 842.207031 408.476562 842.523438 408.253906 842.398438 408.09375 C 842.382812 408.074219 840.964844 408.105469 840.917969 408.128906 C 840.898438 408.136719 839.691406 409.621094 839.582031 409.753906 C 837 412.925781 832.746094 416.375 824.320312 423.632812 C 819.042969 428.179688 816.859375 429.652344 816.167969 430.117188 C 815.925781 430.28125 813.867188 431.667969 812.785156 431.582031 C 810.480469 431.390625 810.699219 426.796875 812.476562 422.304688 C 818.3125 407.550781 839.140625 372.515625 851.859375 356.746094 C 856.289062 351.25 856.214844 351.207031 860.796875 345.839844 C 865.570312 340.25 864.292969 339.507812 873.542969 307.042969 C 875.890625 298.804688 875.753906 298.78125 878.136719 290.558594 C 884.746094 267.738281 885.652344 267.394531 884.222656 263.605469 C 881.816406 257.230469 875.324219 249.046875 864.5 235.632812 C 838.679688 203.636719 829.5625 188.464844 823.929688 169.144531 C 823.839844 168.84375 821.933594 159.816406 821.488281 156.558594 C 819.417969 141.375 819.230469 133.035156 808.808594 123.179688 C 799.679688 114.550781 785.707031 108.78125 783.925781 106.617188 C 781.269531 103.390625 787.371094 97.46875 800.40625 94.808594 C 803.988281 94.074219 803.957031 93.949219 807.613281 93.75 C 812.703125 93.472656 815.25 91.945312 826.214844 93.519531 C 830.871094 94.1875 830.949219 93.457031 835.550781 94.480469 C 839.046875 95.257812 864.132812 97.558594 900.695312 119.660156 C 909.707031 125.105469 916.140625 129.878906 917.433594 130.839844 C 919.488281 132.363281 926.53125 136.3125 933.816406 148.503906 C 936.40625 152.839844 938.59375 159.070312 938.621094 160.722656 C 938.632812 161.410156 938.527344 162.097656 938.550781 162.785156 C 938.558594 163.074219 938.492188 163.445312 938.707031 163.644531 C 938.875 163.796875 939.15625 163.554688 939.382812 163.550781 C 939.636719 163.542969 939.921875 163.726562 940.148438 163.605469 C 940.210938 163.570312 943.113281 157.648438 944.03125 155.390625 C 947.8125 146.089844 947.699219 146.066406 951.511719 136.769531 C 963.332031 107.9375 964.472656 102.964844 977.019531 93.707031 C 979.621094 91.785156 985.539062 88.585938 989.035156 87.660156 C 989.289062 87.59375 991.511719 87.003906 992.207031 86.835938 C 993.144531 86.605469 993.140625 86.605469 993.222656 86.589844 Z M 993.222656 86.589844 " clip-rule="evenodd"/></clipPath><linearGradient x1="0.387387" gradientTransform="matrix(1061.503412, 0, 0, 556.978996, 63.183529, 364.642897)" y1="0" x2="0.998795" gradientUnits="userSpaceOnUse" y2="0" id="5f76496e7c"><stop stop-opacity="1" stop-color="rgb(71.054077%, 51.353455%, 54.299927%)" offset="0"/><stop stop-opacity="1" stop-color="rgb(70.957947%, 51.179504%, 54.147339%)" offset="0.015625"/><stop stop-opacity="1" stop-color="rgb(70.765686%, 50.831604%, 53.842163%)" offset="0.03125"/><stop stop-opacity="1" stop-color="rgb(70.574951%, 50.482178%, 53.536987%)" offset="0.046875"/><stop stop-opacity="1" stop-color="rgb(70.38269%, 50.134277%, 53.231812%)" offset="0.0625"/><stop stop-opacity="1" stop-color="rgb(70.213318%, 49.829102%, 52.963257%)" offset="0.09375"/><stop stop-opacity="1" stop-color="rgb(70.098877%, 49.632263%, 52.789307%)" offset="0.125"/><stop stop-opacity="1" stop-color="rgb(69.979858%, 49.435425%, 52.610779%)" offset="0.1875"/><stop stop-opacity="1" stop-color="rgb(69.821167%, 49.172974%, 52.374268%)" offset="0.25"/><stop stop-opacity="1" stop-color="rgb(69.664001%, 48.908997%, 52.137756%)" offset="0.3125"/><stop stop-opacity="1" stop-color="rgb(69.50531%, 48.646545%, 51.901245%)" offset="0.375"/><stop stop-opacity="1" stop-color="rgb(69.346619%, 48.384094%, 51.664734%)" offset="0.4375"/><stop stop-opacity="1" stop-color="rgb(69.189453%, 48.121643%, 51.428223%)" offset="0.5"/><stop stop-opacity="1" stop-color="rgb(69.030762%, 47.857666%, 51.190186%)" offset="0.5625"/><stop stop-opacity="1" stop-color="rgb(68.87207%, 47.595215%, 50.953674%)" offset="0.625"/><stop stop-opacity="1" stop-color="rgb(68.714905%, 47.332764%, 50.717163%)" offset="0.6875"/><stop stop-opacity="1" stop-color="rgb(68.556213%, 47.070312%, 50.480652%)" offset="0.75"/><stop stop-opacity="1" stop-color="rgb(68.397522%, 46.807861%, 50.244141%)" offset="0.8125"/><stop stop-opacity="1" stop-color="rgb(68.238831%, 46.543884%, 50.007629%)" offset="0.875"/><stop stop-opacity="1" stop-color="rgb(68.081665%, 46.281433%, 49.771118%)" offset="0.9375"/><stop stop-opacity="1" stop-color="rgb(67.922974%, 46.018982%, 49.534607%)" offset="1"/></linearGradient><clipPath id="4892155e93"><path d="M 63 100 L 476 100 L 476 643.402344 L 63 643.402344 Z M 63 100 " clip-rule="nonzero"/></clipPath><clipPath id="0867ee3c1f"><path d="M 451.679688 643.054688 L 441.304688 643.054688 C 440.835938 642.886719 440.703125 642.175781 440.234375 642.007812 C 440.101562 641.960938 433.566406 641.851562 431.949219 641.601562 C 422.40625 640.121094 422.324219 640.914062 410.195312 639.242188 C 405.0625 638.535156 404.972656 639.367188 398.816406 638.128906 C 395.648438 637.488281 395.589844 638.21875 388.382812 637.367188 C 379.078125 636.265625 379.050781 636.9375 369.714844 636.222656 C 358.347656 635.347656 358.332031 635.867188 339.636719 634.988281 C 339.460938 634.976562 282.558594 634.242188 268.023438 634.242188 C 118.15625 634.242188 118.15625 634.078125 105.128906 634.417969 C 104.046875 634.445312 104.0625 634.535156 91.621094 634.898438 C 91.207031 634.910156 74.144531 635.953125 72.9375 636.105469 C 72.921875 636.109375 65.488281 637.617188 63.625 635.261719 C 63.425781 635.007812 63.421875 634.632812 63.222656 634.382812 C 63.304688 633.9375 63.140625 633.476562 63.222656 633.03125 C 63.71875 630.363281 68.722656 632.59375 84.492188 628.417969 C 91.703125 626.507812 101.910156 621.414062 107.914062 615.226562 C 121.183594 601.550781 121.148438 575.363281 121.328125 572.925781 C 122.101562 562.441406 121.703125 562.429688 121.828125 424.496094 C 121.847656 404.890625 122.042969 187.042969 121.898438 179.453125 C 121.699219 168.996094 121.4375 166.117188 121.332031 164.960938 C 120.808594 159.242188 121.425781 159.191406 120.421875 153.550781 C 119.867188 150.425781 120.042969 150.417969 119.429688 147.3125 C 118.789062 144.054688 118.390625 141.285156 115.480469 133.777344 C 113.648438 129.046875 110.683594 125.210938 110.160156 124.539062 C 108.324219 122.164062 106.121094 119.492188 99.800781 115.296875 C 86.558594 106.515625 69.414062 106.226562 68.769531 106.175781 C 68.375 106.144531 64.679688 105.847656 63.851562 105.351562 C 63.488281 105.132812 63.414062 104.945312 63.394531 104.898438 C 63.160156 104.296875 63.417969 104.25 63.183594 103.660156 C 63.328125 103.28125 63.242188 102.839844 63.386719 102.460938 C 63.613281 101.863281 64.460938 101.480469 64.578125 101.429688 C 65.265625 101.117188 66.394531 100.613281 74.019531 101.324219 C 75.097656 101.421875 81.824219 102.050781 87.5 102.246094 C 92.164062 102.40625 92.132812 102.644531 96.804688 102.90625 C 102.90625 103.25 205.644531 103.007812 215.109375 102.988281 C 226.042969 102.960938 226.003906 102.402344 236.925781 102.03125 C 249.5 101.601562 255.085938 100.519531 257.574219 100.96875 C 257.921875 101.03125 260.980469 101.585938 261.089844 103.640625 C 261.34375 108.425781 247.46875 103.636719 227.402344 111.574219 C 211.777344 117.75 206.859375 125.234375 203.894531 129.742188 C 200.84375 134.382812 196.339844 146.582031 195.871094 155.609375 C 195.679688 159.289062 195.023438 159.191406 194.839844 162.867188 C 194.640625 166.800781 194.71875 598.140625 194.773438 603.074219 C 194.84375 609.386719 195.457031 609.3125 195.9375 612.492188 C 196.261719 614.664062 196.304688 614.640625 197.003906 616.730469 C 199.484375 624.101562 202.773438 625.707031 209.894531 628.066406 C 215.09375 629.785156 239.625 628.542969 250.386719 628.511719 C 255.863281 628.496094 255.824219 628.226562 259.714844 627.851562 C 268.347656 627.027344 268.429688 628.15625 277.324219 626.726562 C 281.285156 626.089844 283.382812 626.507812 287.738281 625.917969 C 296.542969 624.726562 296.570312 625.070312 305.347656 623.632812 C 306.128906 623.503906 308.652344 623.429688 310.597656 622.917969 C 313.875 622.054688 313.910156 622.324219 315.800781 622.167969 C 316.984375 622.074219 317.96875 621.589844 321 621.148438 C 325.6875 620.46875 334.371094 618.414062 334.386719 618.414062 C 336.496094 618.011719 336.449219 617.921875 338.523438 617.417969 C 354.925781 613.410156 379.5 606.492188 401.78125 591.523438 C 423.214844 577.121094 432.75 558.246094 436.5 551.371094 C 442.441406 540.472656 447.316406 526.066406 447.632812 525.25 C 449.773438 519.730469 455.328125 499.769531 456.125 496.199219 C 457.222656 491.273438 457.367188 491.308594 457.4375 490.878906 C 457.523438 490.355469 461.59375 473.125 464.746094 455.566406 C 464.894531 454.746094 466.492188 445.839844 466.550781 445.300781 C 466.902344 441.917969 467.136719 441.972656 467.5 440.125 C 468.015625 437.496094 467.550781 437.445312 468.148438 434.84375 C 469.457031 429.175781 468.792969 429.0625 470.105469 423.390625 C 470.808594 420.332031 473.269531 418.582031 474.695312 420.164062 C 475.71875 421.300781 475.25 421.535156 474.066406 433.796875 C 473.707031 437.511719 473.199219 437.421875 472.9375 441.128906 C 472.714844 444.230469 472.75 444.214844 472.210938 447.296875 C 471.554688 451.0625 471.976562 451.660156 471.429688 454.609375 C 470.144531 461.5625 470.789062 462.734375 469.25 472.246094 C 468.96875 473.996094 468.925781 479.128906 468.425781 481.628906 C 467.351562 486.996094 468.28125 487.105469 467.304688 491.992188 C 466.441406 496.296875 466.9375 496.339844 466.460938 500.316406 C 464.472656 516.996094 465.089844 517.035156 464.328125 523.152344 C 463.210938 532.121094 464.101562 532.199219 463.242188 536.65625 C 462.03125 542.925781 462.933594 547.488281 462.230469 552.226562 C 460.78125 562.011719 461.800781 562.082031 460.957031 571.925781 C 460.105469 581.878906 460.488281 584.800781 460.160156 590.628906 C 459.667969 599.449219 459.78125 599.4375 459.628906 608.261719 C 459.601562 609.84375 459.378906 622.789062 459.203125 628.007812 C 459.164062 629.171875 458.839844 638.8125 453.746094 641.480469 C 452.140625 642.324219 452.324219 642.5625 451.679688 643.054688 Z M 451.679688 643.054688 " clip-rule="evenodd"/></clipPath><linearGradient x1="-0.0000406595" gradientTransform="matrix(1061.503412, 0, 0, 556.978996, 63.183529, 364.642897)" y1="0" x2="0.388633" gradientUnits="userSpaceOnUse" y2="0" id="865512b153"><stop stop-opacity="1" stop-color="rgb(78.819275%, 65.489197%, 66.668701%)" offset="0"/><stop stop-opacity="1" stop-color="rgb(78.75824%, 65.379333%, 66.572571%)" offset="0.015625"/><stop stop-opacity="1" stop-color="rgb(78.637695%, 65.158081%, 66.378784%)" offset="0.03125"/><stop stop-opacity="1" stop-color="rgb(78.515625%, 64.936829%, 66.184998%)" offset="0.046875"/><stop stop-opacity="1" stop-color="rgb(78.393555%, 64.71405%, 65.991211%)" offset="0.0625"/><stop stop-opacity="1" stop-color="rgb(78.271484%, 64.492798%, 65.797424%)" offset="0.078125"/><stop stop-opacity="1" stop-color="rgb(78.15094%, 64.271545%, 65.603638%)" offset="0.09375"/><stop stop-opacity="1" stop-color="rgb(78.02887%, 64.050293%, 65.409851%)" offset="0.109375"/><stop stop-opacity="1" stop-color="rgb(77.906799%, 63.827515%, 65.216064%)" offset="0.125"/><stop stop-opacity="1" stop-color="rgb(77.784729%, 63.606262%, 65.022278%)" offset="0.140625"/><stop stop-opacity="1" stop-color="rgb(77.662659%, 63.38501%, 64.826965%)" offset="0.15625"/><stop stop-opacity="1" stop-color="rgb(77.542114%, 63.163757%, 64.633179%)" offset="0.171875"/><stop stop-opacity="1" stop-color="rgb(77.420044%, 62.942505%, 64.439392%)" offset="0.1875"/><stop stop-opacity="1" stop-color="rgb(77.297974%, 62.719727%, 64.245605%)" offset="0.203125"/><stop stop-opacity="1" stop-color="rgb(77.175903%, 62.498474%, 64.051819%)" offset="0.21875"/><stop stop-opacity="1" stop-color="rgb(77.055359%, 62.277222%, 63.858032%)" offset="0.234375"/><stop stop-opacity="1" stop-color="rgb(76.933289%, 62.055969%, 63.664246%)" offset="0.25"/><stop stop-opacity="1" stop-color="rgb(76.811218%, 61.833191%, 63.470459%)" offset="0.265625"/><stop stop-opacity="1" stop-color="rgb(76.689148%, 61.611938%, 63.276672%)" offset="0.28125"/><stop stop-opacity="1" stop-color="rgb(76.567078%, 61.390686%, 63.082886%)" offset="0.296875"/><stop stop-opacity="1" stop-color="rgb(76.446533%, 61.169434%, 62.889099%)" offset="0.3125"/><stop stop-opacity="1" stop-color="rgb(76.324463%, 60.948181%, 62.695312%)" offset="0.328125"/><stop stop-opacity="1" stop-color="rgb(76.202393%, 60.725403%, 62.5%)" offset="0.34375"/><stop stop-opacity="1" stop-color="rgb(76.080322%, 60.50415%, 62.306213%)" offset="0.359375"/><stop stop-opacity="1" stop-color="rgb(75.958252%, 60.282898%, 62.112427%)" offset="0.375"/><stop stop-opacity="1" stop-color="rgb(75.837708%, 60.061646%, 61.91864%)" offset="0.390625"/><stop stop-opacity="1" stop-color="rgb(75.715637%, 59.838867%, 61.724854%)" offset="0.40625"/><stop stop-opacity="1" stop-color="rgb(75.593567%, 59.617615%, 61.531067%)" offset="0.421875"/><stop stop-opacity="1" stop-color="rgb(75.471497%, 59.396362%, 61.33728%)" offset="0.4375"/><stop stop-opacity="1" stop-color="rgb(75.350952%, 59.17511%, 61.143494%)" offset="0.453125"/><stop stop-opacity="1" stop-color="rgb(75.228882%, 58.952332%, 60.949707%)" offset="0.46875"/><stop stop-opacity="1" stop-color="rgb(75.106812%, 58.731079%, 60.75592%)" offset="0.484375"/><stop stop-opacity="1" stop-color="rgb(74.984741%, 58.509827%, 60.562134%)" offset="0.5"/><stop stop-opacity="1" stop-color="rgb(74.862671%, 58.288574%, 60.368347%)" offset="0.515625"/><stop stop-opacity="1" stop-color="rgb(74.742126%, 58.067322%, 60.173035%)" offset="0.53125"/><stop stop-opacity="1" stop-color="rgb(74.620056%, 57.844543%, 59.979248%)" offset="0.546875"/><stop stop-opacity="1" stop-color="rgb(74.497986%, 57.623291%, 59.785461%)" offset="0.5625"/><stop stop-opacity="1" stop-color="rgb(74.375916%, 57.402039%, 59.591675%)" offset="0.578125"/><stop stop-opacity="1" stop-color="rgb(74.253845%, 57.180786%, 59.397888%)" offset="0.59375"/><stop stop-opacity="1" stop-color="rgb(74.133301%, 56.958008%, 59.204102%)" offset="0.609375"/><stop stop-opacity="1" stop-color="rgb(74.01123%, 56.736755%, 59.010315%)" offset="0.625"/><stop stop-opacity="1" stop-color="rgb(73.88916%, 56.515503%, 58.816528%)" offset="0.640625"/><stop stop-opacity="1" stop-color="rgb(73.76709%, 56.29425%, 58.622742%)" offset="0.65625"/><stop stop-opacity="1" stop-color="rgb(73.646545%, 56.072998%, 58.428955%)" offset="0.671875"/><stop stop-opacity="1" stop-color="rgb(73.524475%, 55.85022%, 58.235168%)" offset="0.6875"/><stop stop-opacity="1" stop-color="rgb(73.402405%, 55.628967%, 58.041382%)" offset="0.703125"/><stop stop-opacity="1" stop-color="rgb(73.280334%, 55.407715%, 57.846069%)" offset="0.71875"/><stop stop-opacity="1" stop-color="rgb(73.158264%, 55.186462%, 57.652283%)" offset="0.734375"/><stop stop-opacity="1" stop-color="rgb(73.03772%, 54.963684%, 57.458496%)" offset="0.75"/><stop stop-opacity="1" stop-color="rgb(72.915649%, 54.742432%, 57.264709%)" offset="0.765625"/><stop stop-opacity="1" stop-color="rgb(72.793579%, 54.521179%, 57.070923%)" offset="0.78125"/><stop stop-opacity="1" stop-color="rgb(72.671509%, 54.299927%, 56.877136%)" offset="0.796875"/><stop stop-opacity="1" stop-color="rgb(72.549438%, 54.078674%, 56.68335%)" offset="0.8125"/><stop stop-opacity="1" stop-color="rgb(72.428894%, 53.855896%, 56.489563%)" offset="0.828125"/><stop stop-opacity="1" stop-color="rgb(72.306824%, 53.634644%, 56.295776%)" offset="0.84375"/><stop stop-opacity="1" stop-color="rgb(72.184753%, 53.413391%, 56.10199%)" offset="0.859375"/><stop stop-opacity="1" stop-color="rgb(72.062683%, 53.192139%, 55.908203%)" offset="0.875"/><stop stop-opacity="1" stop-color="rgb(71.942139%, 52.96936%, 55.714417%)" offset="0.890625"/><stop stop-opacity="1" stop-color="rgb(71.820068%, 52.748108%, 55.519104%)" offset="0.90625"/><stop stop-opacity="1" stop-color="rgb(71.697998%, 52.526855%, 55.325317%)" offset="0.921875"/><stop stop-opacity="1" stop-color="rgb(71.575928%, 52.305603%, 55.131531%)" offset="0.9375"/><stop stop-opacity="1" stop-color="rgb(71.453857%, 52.084351%, 54.937744%)" offset="0.953125"/><stop stop-opacity="1" stop-color="rgb(71.333313%, 51.861572%, 54.743958%)" offset="0.96875"/><stop stop-opacity="1" stop-color="rgb(71.211243%, 51.64032%, 54.550171%)" offset="0.984375"/><stop stop-opacity="1" stop-color="rgb(71.089172%, 51.419067%, 54.356384%)" offset="1"/></linearGradient><clipPath id="5ade262e07"><path d="M 1121 639 L 1125 639 L 1125 643.402344 L 1121 643.402344 Z M 1121 639 " clip-rule="nonzero"/></clipPath><clipPath id="75a93fe2ee"><path d="M 1124.558594 640.457031 C 1124.113281 641.199219 1125.003906 642.3125 1124.558594 643.054688 C 1124.453125 643.230469 1124.394531 643.054688 1121.964844 643.054688 C 1122.148438 642.671875 1122.074219 642.203125 1122.253906 641.820312 C 1122.601562 641.089844 1123.007812 641.378906 1123.257812 640.597656 C 1123.378906 640.207031 1123.285156 639.765625 1123.410156 639.371094 Z M 1124.558594 640.457031 " clip-rule="evenodd"/></clipPath><linearGradient x1="0.997436" gradientTransform="matrix(1061.503412, 0, 0, 556.978996, 63.183529, 364.642897)" y1="0" x2="1.000295" gradientUnits="userSpaceOnUse" y2="0" id="9ef49fe38e"><stop stop-opacity="1" stop-color="rgb(67.849731%, 45.896912%, 49.424744%)" offset="0"/><stop stop-opacity="1" stop-color="rgb(67.84668%, 45.892334%, 49.420166%)" offset="0.5"/><stop stop-opacity="1" stop-color="rgb(67.840576%, 45.883179%, 49.412537%)" offset="1"/></linearGradient><clipPath id="df361c6270"><path d="M 0.640625 85 L 171 85 L 171 258 L 0.640625 258 Z M 0.640625 85 " clip-rule="nonzero"/></clipPath><clipPath id="b41452a19d"><rect x="0" width="1048" y="0" height="561"/></clipPath></defs><g clip-path="url(#e1994f35f0)"><g clip-path="url(#4cc2bea711)"><path fill="url(#5f76496e7c)" d="M 474.394531 86.152344 L 474.394531 643.054688 L 1123.410156 643.054688 L 1123.410156 86.152344 Z M 474.394531 86.152344 " fill-rule="nonzero"/></g></g><g clip-path="url(#4892155e93)"><g clip-path="url(#0867ee3c1f)"><path fill="url(#865512b153)" d="M 63.140625 100.519531 L 63.140625 643.054688 L 475.71875 643.054688 L 475.71875 100.519531 Z M 63.140625 100.519531 " fill-rule="nonzero"/></g></g><g clip-path="url(#5ade262e07)"><g clip-path="url(#75a93fe2ee)"><path fill="url(#9ef49fe38e)" d="M 1121.964844 639.371094 L 1121.964844 643.230469 L 1125 643.230469 L 1125 639.371094 Z M 1121.964844 639.371094 " fill-rule="nonzero"/></g></g><g transform="matrix(1, 0, 0, 1, 1166, 94)"><g clip-path="url(#b41452a19d)"><g clip-path="url(#df361c6270)"><g fill="#b37f87" fill-opacity="1"><g transform="translate(0.710732, 257.798581)"><g><path d="M 0 0 L 0 -2.40625 L 6.984375 -2.40625 C 12.128906 -2.40625 16.1875 -3.769531 19.15625 -6.5 C 22.132812 -9.238281 24.832031 -14.144531 27.25 -21.21875 L 79.8125 -172.15625 L 92.109375 -172.15625 L 152.625 -15.1875 C 154.394531 -10.363281 156.320312 -7.023438 158.40625 -5.171875 C 160.5 -3.328125 163.3125 -2.40625 166.84375 -2.40625 L 169.984375 -2.40625 L 169.984375 0 L 103.671875 0 L 103.671875 -2.40625 L 109.21875 -2.40625 C 115.332031 -2.40625 119.753906 -3.128906 122.484375 -4.578125 C 125.210938 -6.023438 126.578125 -8.597656 126.578125 -12.296875 C 126.578125 -13.578125 126.414062 -15.140625 126.09375 -16.984375 C 125.78125 -18.835938 125.21875 -20.8125 124.40625 -22.90625 L 109.703125 -62.453125 L 44.359375 -62.453125 L 31.109375 -24.59375 C 29.660156 -20.414062 28.9375 -16.957031 28.9375 -14.21875 C 28.9375 -9.882812 30.863281 -6.832031 34.71875 -5.0625 C 38.570312 -3.289062 44.757812 -2.40625 53.28125 -2.40625 L 58.828125 -2.40625 L 58.828125 0 Z M 45.09375 -64.859375 L 108.734375 -64.859375 L 91.140625 -111.875 C 84.867188 -128.113281 79.882812 -142.582031 76.1875 -155.28125 C 74.582031 -150.457031 73.175781 -146.195312 71.96875 -142.5 C 70.757812 -138.800781 69.472656 -134.898438 68.109375 -130.796875 C 66.742188 -126.703125 65.015625 -121.757812 62.921875 -115.96875 Z M 45.09375 -64.859375 "/></g></g></g></g><g fill="#b37f87" fill-opacity="1"><g transform="translate(158.636783, 257.798581)"><g><path d="M 51.59375 2.40625 C 39.539062 2.40625 29.734375 0.238281 22.171875 -4.09375 C 14.617188 -8.4375 10.84375 -14.785156 10.84375 -23.140625 C 10.84375 -27.484375 11.6875 -30.859375 13.375 -33.265625 C 15.0625 -35.679688 17.109375 -37.367188 19.515625 -38.328125 C 21.929688 -39.296875 24.109375 -39.78125 26.046875 -39.78125 C 26.046875 -26.757812 27.929688 -16.875 31.703125 -10.125 C 35.484375 -3.375 42.273438 0 52.078125 0 C 60.597656 0 67.347656 -2.207031 72.328125 -6.625 C 77.316406 -11.050781 79.8125 -17.601562 79.8125 -26.28125 C 79.8125 -31.90625 78.84375 -36.363281 76.90625 -39.65625 C 74.976562 -42.957031 71.804688 -45.894531 67.390625 -48.46875 C 62.972656 -51.039062 56.820312 -54.015625 48.9375 -57.390625 C 39.78125 -61.398438 32.546875 -65.296875 27.234375 -69.078125 C 21.929688 -72.859375 18.15625 -77 15.90625 -81.5 C 13.65625 -86 12.53125 -91.300781 12.53125 -97.40625 C 12.53125 -108.332031 16.390625 -116.726562 24.109375 -122.59375 C 31.828125 -128.46875 42.515625 -131.40625 56.171875 -131.40625 C 67.742188 -131.40625 76.785156 -129.191406 83.296875 -124.765625 C 89.804688 -120.347656 93.0625 -115.164062 93.0625 -109.21875 C 93.0625 -104.882812 91.535156 -101.390625 88.484375 -98.734375 C 85.429688 -96.078125 81.171875 -94.75 75.703125 -94.75 C 75.703125 -107.132812 74.015625 -115.9375 70.640625 -121.15625 C 67.265625 -126.382812 62.039062 -129 54.96875 -129 C 38.570312 -129 30.375 -121.28125 30.375 -105.84375 C 30.375 -100.21875 31.5 -95.71875 33.75 -92.34375 C 36 -88.96875 39.453125 -86.070312 44.109375 -83.65625 C 48.773438 -81.25 54.726562 -78.519531 61.96875 -75.46875 C 71.125 -71.769531 78.351562 -68.03125 83.65625 -64.25 C 88.96875 -60.476562 92.707031 -56.300781 94.875 -51.71875 C 97.039062 -47.132812 98.125 -41.707031 98.125 -35.4375 C 98.125 -22.90625 93.90625 -13.460938 85.46875 -7.109375 C 77.03125 -0.765625 65.738281 2.40625 51.59375 2.40625 Z M 51.59375 2.40625 "/></g></g></g><g fill="#b37f87" fill-opacity="1"><g transform="translate(255.321255, 257.798581)"><g><path d="M 51.59375 2.40625 C 39.539062 2.40625 29.734375 0.238281 22.171875 -4.09375 C 14.617188 -8.4375 10.84375 -14.785156 10.84375 -23.140625 C 10.84375 -27.484375 11.6875 -30.859375 13.375 -33.265625 C 15.0625 -35.679688 17.109375 -37.367188 19.515625 -38.328125 C 21.929688 -39.296875 24.109375 -39.78125 26.046875 -39.78125 C 26.046875 -26.757812 27.929688 -16.875 31.703125 -10.125 C 35.484375 -3.375 42.273438 0 52.078125 0 C 60.597656 0 67.347656 -2.207031 72.328125 -6.625 C 77.316406 -11.050781 79.8125 -17.601562 79.8125 -26.28125 C 79.8125 -31.90625 78.84375 -36.363281 76.90625 -39.65625 C 74.976562 -42.957031 71.804688 -45.894531 67.390625 -48.46875 C 62.972656 -51.039062 56.820312 -54.015625 48.9375 -57.390625 C 39.78125 -61.398438 32.546875 -65.296875 27.234375 -69.078125 C 21.929688 -72.859375 18.15625 -77 15.90625 -81.5 C 13.65625 -86 12.53125 -91.300781 12.53125 -97.40625 C 12.53125 -108.332031 16.390625 -116.726562 24.109375 -122.59375 C 31.828125 -128.46875 42.515625 -131.40625 56.171875 -131.40625 C 67.742188 -131.40625 76.785156 -129.191406 83.296875 -124.765625 C 89.804688 -120.347656 93.0625 -115.164062 93.0625 -109.21875 C 93.0625 -104.882812 91.535156 -101.390625 88.484375 -98.734375 C 85.429688 -96.078125 81.171875 -94.75 75.703125 -94.75 C 75.703125 -107.132812 74.015625 -115.9375 70.640625 -121.15625 C 67.265625 -126.382812 62.039062 -129 54.96875 -129 C 38.570312 -129 30.375 -121.28125 30.375 -105.84375 C 30.375 -100.21875 31.5 -95.71875 33.75 -92.34375 C 36 -88.96875 39.453125 -86.070312 44.109375 -83.65625 C 48.773438 -81.25 54.726562 -78.519531 61.96875 -75.46875 C 71.125 -71.769531 78.351562 -68.03125 83.65625 -64.25 C 88.96875 -60.476562 92.707031 -56.300781 94.875 -51.71875 C 97.039062 -47.132812 98.125 -41.707031 98.125 -35.4375 C 98.125 -22.90625 93.90625 -13.460938 85.46875 -7.109375 C 77.03125 -0.765625 65.738281 2.40625 51.59375 2.40625 Z M 51.59375 2.40625 "/></g></g></g><g fill="#b37f87" fill-opacity="1"><g transform="translate(352.005716, 257.798581)"><g><path d="M 38.578125 -152.375 C 35.523438 -152.375 32.992188 -153.378906 30.984375 -155.390625 C 28.972656 -157.398438 27.96875 -160.898438 27.96875 -165.890625 C 27.96875 -171.023438 28.972656 -174.554688 30.984375 -176.484375 C 32.992188 -178.421875 35.523438 -179.390625 38.578125 -179.390625 C 41.472656 -179.390625 43.960938 -178.421875 46.046875 -176.484375 C 48.140625 -174.554688 49.1875 -171.023438 49.1875 -165.890625 C 49.1875 -160.898438 48.140625 -157.398438 46.046875 -155.390625 C 43.960938 -153.378906 41.472656 -152.375 38.578125 -152.375 Z M 5.546875 0 L 5.546875 -2.40625 L 8.6875 -2.40625 C 15.75 -2.40625 20.804688 -3.851562 23.859375 -6.75 C 26.921875 -9.644531 28.453125 -14.382812 28.453125 -20.96875 L 28.453125 -108.015625 C 28.453125 -114.765625 26.921875 -119.585938 23.859375 -122.484375 C 20.804688 -125.378906 15.75 -126.828125 8.6875 -126.828125 L 7.953125 -126.828125 L 7.953125 -129.234375 L 51.109375 -129.234375 L 51.109375 -22.1875 C 51.109375 -15.113281 52.632812 -10.046875 55.6875 -6.984375 C 58.75 -3.929688 63.816406 -2.40625 70.890625 -2.40625 L 74.015625 -2.40625 L 74.015625 0 Z M 5.546875 0 "/></g></g></g><g fill="#b37f87" fill-opacity="1"><g transform="translate(417.104918, 257.798581)"><g><path d="M 51.59375 2.40625 C 39.539062 2.40625 29.734375 0.238281 22.171875 -4.09375 C 14.617188 -8.4375 10.84375 -14.785156 10.84375 -23.140625 C 10.84375 -27.484375 11.6875 -30.859375 13.375 -33.265625 C 15.0625 -35.679688 17.109375 -37.367188 19.515625 -38.328125 C 21.929688 -39.296875 24.109375 -39.78125 26.046875 -39.78125 C 26.046875 -26.757812 27.929688 -16.875 31.703125 -10.125 C 35.484375 -3.375 42.273438 0 52.078125 0 C 60.597656 0 67.347656 -2.207031 72.328125 -6.625 C 77.316406 -11.050781 79.8125 -17.601562 79.8125 -26.28125 C 79.8125 -31.90625 78.84375 -36.363281 76.90625 -39.65625 C 74.976562 -42.957031 71.804688 -45.894531 67.390625 -48.46875 C 62.972656 -51.039062 56.820312 -54.015625 48.9375 -57.390625 C 39.78125 -61.398438 32.546875 -65.296875 27.234375 -69.078125 C 21.929688 -72.859375 18.15625 -77 15.90625 -81.5 C 13.65625 -86 12.53125 -91.300781 12.53125 -97.40625 C 12.53125 -108.332031 16.390625 -116.726562 24.109375 -122.59375 C 31.828125 -128.46875 42.515625 -131.40625 56.171875 -131.40625 C 67.742188 -131.40625 76.785156 -129.191406 83.296875 -124.765625 C 89.804688 -120.347656 93.0625 -115.164062 93.0625 -109.21875 C 93.0625 -104.882812 91.535156 -101.390625 88.484375 -98.734375 C 85.429688 -96.078125 81.171875 -94.75 75.703125 -94.75 C 75.703125 -107.132812 74.015625 -115.9375 70.640625 -121.15625 C 67.265625 -126.382812 62.039062 -129 54.96875 -129 C 38.570312 -129 30.375 -121.28125 30.375 -105.84375 C 30.375 -100.21875 31.5 -95.71875 33.75 -92.34375 C 36 -88.96875 39.453125 -86.070312 44.109375 -83.65625 C 48.773438 -81.25 54.726562 -78.519531 61.96875 -75.46875 C 71.125 -71.769531 78.351562 -68.03125 83.65625 -64.25 C 88.96875 -60.476562 92.707031 -56.300781 94.875 -51.71875 C 97.039062 -47.132812 98.125 -41.707031 98.125 -35.4375 C 98.125 -22.90625 93.90625 -13.460938 85.46875 -7.109375 C 77.03125 -0.765625 65.738281 2.40625 51.59375 2.40625 Z M 51.59375 2.40625 "/></g></g></g><g fill="#b37f87" fill-opacity="1"><g transform="translate(513.789378, 257.798581)"><g><path d="M 57.859375 2.40625 C 45.648438 2.40625 36.769531 -0.363281 31.21875 -5.90625 C 25.675781 -11.445312 22.90625 -21.128906 22.90625 -34.953125 L 22.90625 -126.828125 L 4.578125 -126.828125 L 4.578125 -129.234375 C 15.992188 -129.234375 24.675781 -131.40625 30.625 -135.75 C 36.894531 -140.082031 41.070312 -147.796875 43.15625 -158.890625 L 45.5625 -158.890625 L 45.5625 -129.234375 L 79.328125 -129.234375 L 79.328125 -126.828125 L 45.5625 -126.828125 L 45.5625 -26.046875 C 45.5625 -9.328125 51.914062 -0.96875 64.625 -0.96875 C 68.800781 -0.96875 73.703125 -1.929688 79.328125 -3.859375 L 79.328125 -1.453125 C 77.234375 -0.484375 74.097656 0.398438 69.921875 1.203125 C 65.742188 2.003906 61.722656 2.40625 57.859375 2.40625 Z M 57.859375 2.40625 "/></g></g></g><g fill="#b37f87" fill-opacity="1"><g transform="translate(586.60407, 257.798581)"><g><path d="M 51.84375 2.40625 C 39.457031 2.40625 29.726562 -0.765625 22.65625 -7.109375 C 15.59375 -13.460938 12.0625 -22.179688 12.0625 -33.265625 C 12.0625 -45.648438 16.597656 -54.894531 25.671875 -61 C 34.753906 -67.101562 48.539062 -70.476562 67.03125 -71.125 L 87.046875 -71.84375 L 87.046875 -89.9375 C 87.046875 -98.9375 86.5625 -106.328125 85.59375 -112.109375 C 84.625 -117.898438 82.53125 -122.203125 79.3125 -125.015625 C 76.101562 -127.828125 71.207031 -129.234375 64.625 -129.234375 C 55.300781 -129.234375 49.3125 -126.335938 46.65625 -120.546875 C 44 -114.765625 42.671875 -105.6875 42.671875 -93.3125 C 35.921875 -93.3125 30.816406 -94.4375 27.359375 -96.6875 C 23.910156 -98.9375 22.1875 -102.632812 22.1875 -107.78125 C 22.1875 -113.5625 24.15625 -118.179688 28.09375 -121.640625 C 32.03125 -125.097656 37.253906 -127.628906 43.765625 -129.234375 C 50.273438 -130.835938 57.546875 -131.640625 65.578125 -131.640625 C 80.367188 -131.640625 91.421875 -128.503906 98.734375 -122.234375 C 106.046875 -115.972656 109.703125 -105.207031 109.703125 -89.9375 L 109.703125 -17.84375 C 109.703125 -12.050781 110.828125 -8.03125 113.078125 -5.78125 C 115.328125 -3.53125 119.1875 -2.40625 124.65625 -2.40625 L 125.375 -2.40625 L 125.375 0 L 88.96875 0 L 88.96875 -25.3125 L 88.484375 -25.3125 C 85.910156 -15.664062 81.367188 -8.632812 74.859375 -4.21875 C 68.347656 0.195312 60.675781 2.40625 51.84375 2.40625 Z M 56.65625 -0.96875 C 62.601562 -0.96875 67.867188 -2.492188 72.453125 -5.546875 C 77.035156 -8.597656 80.613281 -12.695312 83.1875 -17.84375 C 85.757812 -22.988281 87.046875 -28.535156 87.046875 -34.484375 L 87.046875 -69.203125 L 71.609375 -68.46875 C 57.941406 -67.832031 48.492188 -64.703125 43.265625 -59.078125 C 38.046875 -53.453125 35.4375 -43.96875 35.4375 -30.625 C 35.4375 -10.851562 42.507812 -0.96875 56.65625 -0.96875 Z M 56.65625 -0.96875 "/></g></g></g><g fill="#b37f87" fill-opacity="1"><g transform="translate(710.292747, 257.798581)"><g><path d="M 6.75 0 L 6.75 -2.40625 L 8.6875 -2.40625 C 16.070312 -2.40625 21.210938 -4.015625 24.109375 -7.234375 C 27.003906 -10.453125 28.453125 -16.238281 28.453125 -24.59375 L 28.453125 -105.125 C 28.453125 -113.320312 27.082031 -118.988281 24.34375 -122.125 C 21.613281 -125.257812 16.550781 -126.828125 9.15625 -126.828125 L 7.953125 -126.828125 L 7.953125 -129.234375 L 50.875 -129.234375 L 50.875 -106.578125 L 51.359375 -106.578125 C 53.441406 -113.960938 56.53125 -119.460938 60.625 -123.078125 C 64.726562 -126.703125 69.148438 -129.035156 73.890625 -130.078125 C 78.640625 -131.117188 83.023438 -131.640625 87.046875 -131.640625 C 101.347656 -131.640625 111.992188 -127.898438 118.984375 -120.421875 C 125.972656 -112.953125 129.46875 -100.941406 129.46875 -84.390625 L 129.46875 -24.59375 C 129.46875 -16.238281 130.753906 -10.453125 133.328125 -7.234375 C 135.898438 -4.015625 140.644531 -2.40625 147.5625 -2.40625 L 148.765625 -2.40625 L 148.765625 0 L 106.8125 0 L 106.8125 -92.59375 C 106.8125 -103.039062 104.84375 -111.554688 100.90625 -118.140625 C 96.96875 -124.734375 90.335938 -128.03125 81.015625 -128.03125 C 73.460938 -128.03125 67.515625 -126.019531 63.171875 -122 C 58.828125 -117.976562 55.726562 -112.789062 53.875 -106.4375 C 52.03125 -100.09375 51.109375 -93.46875 51.109375 -86.5625 L 51.109375 -24.59375 C 51.109375 -16.238281 52.472656 -10.453125 55.203125 -7.234375 C 57.941406 -4.015625 63.007812 -2.40625 70.40625 -2.40625 L 71.609375 -2.40625 L 71.609375 0 Z M 6.75 0 "/></g></g></g><g fill="#b37f87" fill-opacity="1"><g transform="translate(853.752281, 257.798581)"><g><path d="M 57.859375 2.40625 C 45.648438 2.40625 36.769531 -0.363281 31.21875 -5.90625 C 25.675781 -11.445312 22.90625 -21.128906 22.90625 -34.953125 L 22.90625 -126.828125 L 4.578125 -126.828125 L 4.578125 -129.234375 C 15.992188 -129.234375 24.675781 -131.40625 30.625 -135.75 C 36.894531 -140.082031 41.070312 -147.796875 43.15625 -158.890625 L 45.5625 -158.890625 L 45.5625 -129.234375 L 79.328125 -129.234375 L 79.328125 -126.828125 L 45.5625 -126.828125 L 45.5625 -26.046875 C 45.5625 -9.328125 51.914062 -0.96875 64.625 -0.96875 C 68.800781 -0.96875 73.703125 -1.929688 79.328125 -3.859375 L 79.328125 -1.453125 C 77.234375 -0.484375 74.097656 0.398438 69.921875 1.203125 C 65.742188 2.003906 61.722656 2.40625 57.859375 2.40625 Z M 57.859375 2.40625 "/></g></g></g><g fill="#b37f87" fill-opacity="1"><g transform="translate(926.566926, 257.798581)"><g><path d="M 70.40625 2.40625 C 52.40625 2.40625 38.378906 -3.378906 28.328125 -14.953125 C 18.285156 -26.523438 13.265625 -42.757812 13.265625 -63.65625 C 13.265625 -86.15625 17.882812 -103.109375 27.125 -114.515625 C 36.363281 -125.929688 49.582031 -131.640625 66.78125 -131.640625 C 82.375 -131.640625 94.628906 -126.816406 103.546875 -117.171875 C 112.472656 -107.535156 116.9375 -93.148438 116.9375 -74.015625 L 116.9375 -68.234375 L 36.65625 -68.234375 C 36.8125 -43.640625 39.5 -26.117188 44.71875 -15.671875 C 49.945312 -5.222656 58.75 0 71.125 0 C 80.125 0 87.71875 -2.488281 93.90625 -7.46875 C 100.09375 -12.457031 104.070312 -19.851562 105.84375 -29.65625 C 107.769531 -29.332031 109.21875 -28.367188 110.1875 -26.765625 C 111.15625 -25.160156 111.640625 -23.472656 111.640625 -21.703125 C 111.640625 -18.484375 110.109375 -14.984375 107.046875 -11.203125 C 103.992188 -7.429688 99.453125 -4.21875 93.421875 -1.5625 C 87.398438 1.082031 79.726562 2.40625 70.40625 2.40625 Z M 36.65625 -70.640625 L 92.59375 -70.640625 C 92.59375 -91.703125 90.582031 -106.734375 86.5625 -115.734375 C 82.539062 -124.734375 75.789062 -129.234375 66.3125 -129.234375 C 56.5 -129.234375 49.300781 -124.734375 44.71875 -115.734375 C 40.144531 -106.734375 37.457031 -91.703125 36.65625 -70.640625 Z M 36.65625 -70.640625 "/></g></g></g><g fill="#b37f87" fill-opacity="1"><g transform="translate(0.710732, 489.039358)"><g><path d="M 9.15625 0 L 9.15625 -2.40625 L 12.296875 -2.40625 C 25.472656 -2.40625 32.0625 -8.191406 32.0625 -19.765625 L 32.0625 -153.34375 C 32.0625 -164.269531 25.472656 -169.734375 12.296875 -169.734375 L 9.15625 -169.734375 L 9.15625 -172.15625 L 82.9375 -172.15625 C 107.695312 -172.15625 126.988281 -164.679688 140.8125 -149.734375 C 154.632812 -134.785156 161.546875 -113.644531 161.546875 -86.3125 C 161.546875 -68.632812 158.609375 -53.363281 152.734375 -40.5 C 146.867188 -27.644531 138.109375 -17.679688 126.453125 -10.609375 C 114.804688 -3.535156 100.300781 0 82.9375 0 Z M 56.421875 -2.40625 L 77.390625 -2.40625 C 97.484375 -2.40625 112.070312 -9.035156 121.15625 -22.296875 C 130.238281 -35.554688 134.78125 -56.894531 134.78125 -86.3125 C 134.78125 -115.570312 130.238281 -136.789062 121.15625 -149.96875 C 112.070312 -163.144531 97.566406 -169.734375 77.640625 -169.734375 L 56.421875 -169.734375 Z M 56.421875 -2.40625 "/></g></g></g><g fill="#b37f87" fill-opacity="1"><g transform="translate(163.941199, 489.039358)"><g><path d="M 38.578125 -152.375 C 35.523438 -152.375 32.992188 -153.378906 30.984375 -155.390625 C 28.972656 -157.398438 27.96875 -160.898438 27.96875 -165.890625 C 27.96875 -171.023438 28.972656 -174.554688 30.984375 -176.484375 C 32.992188 -178.421875 35.523438 -179.390625 38.578125 -179.390625 C 41.472656 -179.390625 43.960938 -178.421875 46.046875 -176.484375 C 48.140625 -174.554688 49.1875 -171.023438 49.1875 -165.890625 C 49.1875 -160.898438 48.140625 -157.398438 46.046875 -155.390625 C 43.960938 -153.378906 41.472656 -152.375 38.578125 -152.375 Z M 5.546875 0 L 5.546875 -2.40625 L 8.6875 -2.40625 C 15.75 -2.40625 20.804688 -3.851562 23.859375 -6.75 C 26.921875 -9.644531 28.453125 -14.382812 28.453125 -20.96875 L 28.453125 -108.015625 C 28.453125 -114.765625 26.921875 -119.585938 23.859375 -122.484375 C 20.804688 -125.378906 15.75 -126.828125 8.6875 -126.828125 L 7.953125 -126.828125 L 7.953125 -129.234375 L 51.109375 -129.234375 L 51.109375 -22.1875 C 51.109375 -15.113281 52.632812 -10.046875 55.6875 -6.984375 C 58.75 -3.929688 63.816406 -2.40625 70.890625 -2.40625 L 74.015625 -2.40625 L 74.015625 0 Z M 5.546875 0 "/></g></g></g><g fill="#b37f87" fill-opacity="1"><g transform="translate(229.040424, 489.039358)"><g><path d="M 55.703125 57.859375 C 38.984375 57.859375 26.441406 54.84375 18.078125 48.8125 C 9.722656 42.789062 5.546875 34.796875 5.546875 24.828125 C 5.546875 16.472656 8.476562 9.765625 14.34375 4.703125 C 20.207031 -0.359375 29.171875 -2.972656 41.234375 -3.140625 C 34.960938 -5.066406 30.257812 -8.195312 27.125 -12.53125 C 23.988281 -16.875 22.421875 -21.457031 22.421875 -26.28125 C 22.421875 -30.9375 23.988281 -35.394531 27.125 -39.65625 C 30.257812 -43.914062 35.125 -47.171875 41.71875 -49.421875 C 34 -52.160156 27.847656 -56.703125 23.265625 -63.046875 C 18.679688 -69.398438 16.390625 -77.398438 16.390625 -87.046875 C 16.390625 -100.867188 20.164062 -111.753906 27.71875 -119.703125 C 35.28125 -127.660156 46.613281 -131.640625 61.71875 -131.640625 C 67.1875 -131.640625 72.210938 -130.957031 76.796875 -129.59375 C 81.378906 -128.226562 85.4375 -126.257812 88.96875 -123.6875 C 91.382812 -126.257812 94.597656 -129.070312 98.609375 -132.125 C 102.628906 -135.175781 107.375 -136.703125 112.84375 -136.703125 C 117.5 -136.703125 120.992188 -135.457031 123.328125 -132.96875 C 125.660156 -130.476562 126.828125 -127.46875 126.828125 -123.9375 C 126.828125 -120.71875 125.820312 -118.0625 123.8125 -115.96875 C 121.800781 -113.882812 118.546875 -112.84375 114.046875 -112.84375 C 114.046875 -122.800781 110.507812 -127.78125 103.4375 -127.78125 C 101.34375 -127.78125 99.410156 -127.378906 97.640625 -126.578125 C 95.878906 -125.773438 93.628906 -124.332031 90.890625 -122.25 C 95.554688 -118.382812 99.09375 -113.476562 101.5 -107.53125 C 103.914062 -101.582031 105.125 -94.992188 105.125 -87.765625 C 105.125 -75.867188 101.546875 -65.984375 94.390625 -58.109375 C 87.242188 -50.234375 76.351562 -46.296875 61.71875 -46.296875 C 55.613281 -46.296875 49.988281 -47.019531 44.84375 -48.46875 C 40.988281 -46.851562 38.335938 -44.921875 36.890625 -42.671875 C 35.441406 -40.421875 34.71875 -37.929688 34.71875 -35.203125 C 34.71875 -27.160156 40.664062 -23.140625 52.5625 -23.140625 L 79.8125 -23.140625 C 94.113281 -23.140625 104.316406 -19.765625 110.421875 -13.015625 C 116.535156 -6.265625 119.59375 2.332031 119.59375 12.78125 C 119.59375 26.601562 114.40625 37.570312 104.03125 45.6875 C 93.664062 53.800781 77.554688 57.859375 55.703125 57.859375 Z M 61 -48.703125 C 68.875 -48.703125 74.414062 -51.796875 77.625 -57.984375 C 80.84375 -64.171875 82.453125 -74.097656 82.453125 -87.765625 C 82.453125 -101.910156 80.804688 -112.359375 77.515625 -119.109375 C 74.222656 -125.859375 68.640625 -129.234375 60.765625 -129.234375 C 53.046875 -129.234375 47.5 -125.738281 44.125 -118.75 C 40.75 -111.757812 39.0625 -101.347656 39.0625 -87.515625 C 39.0625 -74.179688 40.785156 -64.378906 44.234375 -58.109375 C 47.691406 -51.835938 53.28125 -48.703125 61 -48.703125 Z M 57.625 55.453125 C 72.894531 55.453125 84.144531 52.71875 91.375 47.25 C 98.613281 41.789062 102.234375 33.597656 102.234375 22.671875 C 102.234375 6.429688 93.226562 -1.6875 75.21875 -1.6875 L 49.1875 -1.6875 C 44.6875 -1.6875 40.503906 -0.882812 36.640625 0.71875 C 32.785156 2.332031 29.613281 5.144531 27.125 9.15625 C 24.632812 13.175781 23.390625 18.722656 23.390625 25.796875 C 23.390625 35.597656 26.398438 42.988281 32.421875 47.96875 C 38.453125 52.957031 46.851562 55.453125 57.625 55.453125 Z M 57.625 55.453125 "/></g></g></g><g fill="#b37f87" fill-opacity="1"><g transform="translate(346.701344, 489.039358)"><g><path d="M 38.578125 -152.375 C 35.523438 -152.375 32.992188 -153.378906 30.984375 -155.390625 C 28.972656 -157.398438 27.96875 -160.898438 27.96875 -165.890625 C 27.96875 -171.023438 28.972656 -174.554688 30.984375 -176.484375 C 32.992188 -178.421875 35.523438 -179.390625 38.578125 -179.390625 C 41.472656 -179.390625 43.960938 -178.421875 46.046875 -176.484375 C 48.140625 -174.554688 49.1875 -171.023438 49.1875 -165.890625 C 49.1875 -160.898438 48.140625 -157.398438 46.046875 -155.390625 C 43.960938 -153.378906 41.472656 -152.375 38.578125 -152.375 Z M 5.546875 0 L 5.546875 -2.40625 L 8.6875 -2.40625 C 15.75 -2.40625 20.804688 -3.851562 23.859375 -6.75 C 26.921875 -9.644531 28.453125 -14.382812 28.453125 -20.96875 L 28.453125 -108.015625 C 28.453125 -114.765625 26.921875 -119.585938 23.859375 -122.484375 C 20.804688 -125.378906 15.75 -126.828125 8.6875 -126.828125 L 7.953125 -126.828125 L 7.953125 -129.234375 L 51.109375 -129.234375 L 51.109375 -22.1875 C 51.109375 -15.113281 52.632812 -10.046875 55.6875 -6.984375 C 58.75 -3.929688 63.816406 -2.40625 70.890625 -2.40625 L 74.015625 -2.40625 L 74.015625 0 Z M 5.546875 0 "/></g></g></g><g fill="#b37f87" fill-opacity="1"><g transform="translate(411.800569, 489.039358)"><g><path d="M 57.859375 2.40625 C 45.648438 2.40625 36.769531 -0.363281 31.21875 -5.90625 C 25.675781 -11.445312 22.90625 -21.128906 22.90625 -34.953125 L 22.90625 -126.828125 L 4.578125 -126.828125 L 4.578125 -129.234375 C 15.992188 -129.234375 24.675781 -131.40625 30.625 -135.75 C 36.894531 -140.082031 41.070312 -147.796875 43.15625 -158.890625 L 45.5625 -158.890625 L 45.5625 -129.234375 L 79.328125 -129.234375 L 79.328125 -126.828125 L 45.5625 -126.828125 L 45.5625 -26.046875 C 45.5625 -9.328125 51.914062 -0.96875 64.625 -0.96875 C 68.800781 -0.96875 73.703125 -1.929688 79.328125 -3.859375 L 79.328125 -1.453125 C 77.234375 -0.484375 74.097656 0.398438 69.921875 1.203125 C 65.742188 2.003906 61.722656 2.40625 57.859375 2.40625 Z M 57.859375 2.40625 "/></g></g></g><g fill="#b37f87" fill-opacity="1"><g transform="translate(484.615261, 489.039358)"><g><path d="M 51.84375 2.40625 C 39.457031 2.40625 29.726562 -0.765625 22.65625 -7.109375 C 15.59375 -13.460938 12.0625 -22.179688 12.0625 -33.265625 C 12.0625 -45.648438 16.597656 -54.894531 25.671875 -61 C 34.753906 -67.101562 48.539062 -70.476562 67.03125 -71.125 L 87.046875 -71.84375 L 87.046875 -89.9375 C 87.046875 -98.9375 86.5625 -106.328125 85.59375 -112.109375 C 84.625 -117.898438 82.53125 -122.203125 79.3125 -125.015625 C 76.101562 -127.828125 71.207031 -129.234375 64.625 -129.234375 C 55.300781 -129.234375 49.3125 -126.335938 46.65625 -120.546875 C 44 -114.765625 42.671875 -105.6875 42.671875 -93.3125 C 35.921875 -93.3125 30.816406 -94.4375 27.359375 -96.6875 C 23.910156 -98.9375 22.1875 -102.632812 22.1875 -107.78125 C 22.1875 -113.5625 24.15625 -118.179688 28.09375 -121.640625 C 32.03125 -125.097656 37.253906 -127.628906 43.765625 -129.234375 C 50.273438 -130.835938 57.546875 -131.640625 65.578125 -131.640625 C 80.367188 -131.640625 91.421875 -128.503906 98.734375 -122.234375 C 106.046875 -115.972656 109.703125 -105.207031 109.703125 -89.9375 L 109.703125 -17.84375 C 109.703125 -12.050781 110.828125 -8.03125 113.078125 -5.78125 C 115.328125 -3.53125 119.1875 -2.40625 124.65625 -2.40625 L 125.375 -2.40625 L 125.375 0 L 88.96875 0 L 88.96875 -25.3125 L 88.484375 -25.3125 C 85.910156 -15.664062 81.367188 -8.632812 74.859375 -4.21875 C 68.347656 0.195312 60.675781 2.40625 51.84375 2.40625 Z M 56.65625 -0.96875 C 62.601562 -0.96875 67.867188 -2.492188 72.453125 -5.546875 C 77.035156 -8.597656 80.613281 -12.695312 83.1875 -17.84375 C 85.757812 -22.988281 87.046875 -28.535156 87.046875 -34.484375 L 87.046875 -69.203125 L 71.609375 -68.46875 C 57.941406 -67.832031 48.492188 -64.703125 43.265625 -59.078125 C 38.046875 -53.453125 35.4375 -43.96875 35.4375 -30.625 C 35.4375 -10.851562 42.507812 -0.96875 56.65625 -0.96875 Z M 56.65625 -0.96875 "/></g></g></g><g fill="#b37f87" fill-opacity="1"><g transform="translate(608.30389, 489.039358)"><g><path d="M 3.140625 0 L 3.140625 -2.40625 L 6.265625 -2.40625 C 13.335938 -2.40625 18.398438 -3.851562 21.453125 -6.75 C 24.515625 -9.644531 26.046875 -14.382812 26.046875 -20.96875 L 26.046875 -162.03125 C 26.046875 -168.78125 24.515625 -173.597656 21.453125 -176.484375 C 18.398438 -179.378906 13.335938 -180.828125 6.265625 -180.828125 L 3.140625 -180.828125 L 3.140625 -183.25 L 48.703125 -183.25 L 48.703125 -22.1875 C 48.703125 -15.113281 50.226562 -10.046875 53.28125 -6.984375 C 56.332031 -3.929688 61.394531 -2.40625 68.46875 -2.40625 L 71.609375 -2.40625 L 71.609375 0 Z M 3.140625 0 "/></g></g></g><g fill="#b37f87" fill-opacity="1"><g transform="translate(670.992036, 489.039358)"><g><path d="M 70.40625 2.40625 C 52.40625 2.40625 38.378906 -3.378906 28.328125 -14.953125 C 18.285156 -26.523438 13.265625 -42.757812 13.265625 -63.65625 C 13.265625 -86.15625 17.882812 -103.109375 27.125 -114.515625 C 36.363281 -125.929688 49.582031 -131.640625 66.78125 -131.640625 C 82.375 -131.640625 94.628906 -126.816406 103.546875 -117.171875 C 112.472656 -107.535156 116.9375 -93.148438 116.9375 -74.015625 L 116.9375 -68.234375 L 36.65625 -68.234375 C 36.8125 -43.640625 39.5 -26.117188 44.71875 -15.671875 C 49.945312 -5.222656 58.75 0 71.125 0 C 80.125 0 87.71875 -2.488281 93.90625 -7.46875 C 100.09375 -12.457031 104.070312 -19.851562 105.84375 -29.65625 C 107.769531 -29.332031 109.21875 -28.367188 110.1875 -26.765625 C 111.15625 -25.160156 111.640625 -23.472656 111.640625 -21.703125 C 111.640625 -18.484375 110.109375 -14.984375 107.046875 -11.203125 C 103.992188 -7.429688 99.453125 -4.21875 93.421875 -1.5625 C 87.398438 1.082031 79.726562 2.40625 70.40625 2.40625 Z M 36.65625 -70.640625 L 92.59375 -70.640625 C 92.59375 -91.703125 90.582031 -106.734375 86.5625 -115.734375 C 82.539062 -124.734375 75.789062 -129.234375 66.3125 -129.234375 C 56.5 -129.234375 49.300781 -124.734375 44.71875 -115.734375 C 40.144531 -106.734375 37.457031 -91.703125 36.65625 -70.640625 Z M 36.65625 -70.640625 "/></g></g></g></g></g></svg>